<svg height="511pt" viewBox="0 0 511.99979 511" width="511pt" xmlns="http://www.w3.org/2000/svg"><path d="m409.640625 179.636719c0 37.320312-30.253906 67.574219-67.585937 67.574219h-244.566407c-49.621093 0-89.859375-40.226563-89.859375-89.863282 0-49.621094 40.238282-89.859375 89.859375-89.859375 4.453125 0 8.828125.34375 13.117188.964844 20.296875-40.300781 62.027343-67.953125 110.246093-67.953125 58.335938 0 107.210938 40.503906 120.046876 94.921875 1.28125 5.429687 2.207031 10.996094 2.742187 16.667969v.011718c36.582031.839844 66 30.75 66 67.535157zm0 0" fill="#84abc1"/><path d="m263.722656 8.167969c-13.355468-4.960938-27.804687-7.664063-42.875-7.664063-48.214844 0-89.933594 27.65625-110.242187 67.941406v.011719c-4.289063-.621093-8.664063-.964843-13.117188-.964843-49.636719 0-89.859375 40.238281-89.859375 89.859374 0 49.636719 40.222656 89.863282 89.859375 89.863282h43.433594c-44.726563 0-80.96875-36.253906-80.96875-80.96875 0-39.679688 28.542969-72.699219 66.226563-79.625 3.730468-.695313 7.550781-1.125 11.445312-1.28125 1.089844-.035156 2.191406-.0625 3.296875-.0625 14.535156 0 28.1875 3.832031 39.96875 10.554687-1.636719-11.40625-13.429687-22.09375-30.816406-30.703125 9.546875-32.292968 42.039062-62.238281 113.648437-56.960937zm0 0" fill="#4d87a1"/><path d="m512 309.917969c0 30.179687-24.46875 54.648437-54.660156 54.648437h-197.789063c-40.132812 0-72.675781-32.53125-72.675781-72.675781 0-40.132813 32.542969-72.671875 72.675781-72.671875 3.601563 0 7.140625.277344 10.605469.777344 16.414062-32.589844 50.167969-54.953125 89.160156-54.953125 47.179688 0 86.707032 32.753906 97.089844 76.765625 1.035156 4.390625 1.785156 8.894531 2.21875 13.480468v.007813c29.585938.679687 53.375 24.867187 53.375 54.621094zm0 0" fill="#d3ddea"/><path d="m393.992188 171.242188c-10.800782-4.011719-22.488282-6.195313-34.675782-6.195313-38.992187 0-72.734375 22.363281-89.160156 54.945313v.011718c-3.464844-.503906-7.003906-.78125-10.605469-.78125-40.144531 0-72.675781 32.539063-72.675781 72.671875 0 40.144531 32.53125 72.675781 72.675781 72.675781h35.125c-36.171875 0-65.480469-29.320312-65.480469-65.484374 0-32.089844 23.082032-58.792969 53.558594-64.394532 3.019532-.5625 6.105469-.910156 9.253906-1.035156.882813-.03125 1.777344-.050781 2.667969-.050781 11.757813 0 22.796875 3.097656 32.328125 8.535156-1.324218-9.226563-10.863281-17.867187-24.925781-24.832031 7.722656-26.113282 34-50.332032 91.914063-46.066406zm0 0" fill="#84abc1"/><g fill="#d3ddea"><path d="m331.871094 511.03125c-1.839844 0-3.6875-.65625-5.15625-1.988281-3.152344-2.847657-3.398438-7.714844-.546875-10.867188l102.328125-113.183593c2.851562-3.152344 7.71875-3.398438 10.871094-.550782 3.152343 2.851563 3.394531 7.71875.546874 10.867188l-102.332031 113.1875c-1.519531 1.679687-3.613281 2.535156-5.710937 2.535156zm0 0"/><path d="m260.070312 511.03125c-1.839843 0-3.6875-.65625-5.160156-1.988281-3.152344-2.847657-3.398437-7.714844-.546875-10.867188l102.28125-113.125c2.847657-3.152343 7.714844-3.394531 10.867188-.546875 3.152343 2.851563 3.394531 7.714844.546875 10.867188l-102.28125 113.125c-1.515625 1.679687-3.609375 2.535156-5.707032 2.535156zm0 0"/><path d="m188.257812 511.03125c-1.839843 0-3.6875-.65625-5.160156-1.988281-3.152344-2.847657-3.394531-7.714844-.546875-10.867188l102.292969-113.125c2.851562-3.148437 7.714844-3.394531 10.867188-.546875 3.152343 2.851563 3.394531 7.71875.546874 10.867188l-102.292968 113.125c-1.515625 1.679687-3.609375 2.535156-5.707032 2.535156zm0 0"/><path d="m116.457031 511.03125c-1.839843 0-3.6875-.65625-5.15625-1.988281-3.15625-2.847657-3.398437-7.714844-.550781-10.867188l103.492188-114.46875c2.847656-3.152343 7.714843-3.394531 10.867187-.546875 3.152344 2.851563 3.398437 7.714844.546875 10.867188l-103.488281 114.46875c-1.519531 1.679687-3.613281 2.535156-5.710938 2.535156zm0 0"/><path d="m44.652344 511.03125c-1.839844 0-3.683594-.65625-5.15625-1.988281-3.152344-2.847657-3.398438-7.714844-.546875-10.867188l129.96875-143.746093c2.847656-3.152344 7.714843-3.398438 10.867187-.546876 3.152344 2.851563 3.398438 7.714844.546875 10.867188l-129.96875 143.746094c-1.519531 1.679687-3.609375 2.535156-5.710937 2.535156zm0 0"/><path d="m7.691406 472.5c-1.839844 0-3.683594-.65625-5.15625-1.988281-3.152344-2.851563-3.398437-7.714844-.546875-10.867188l159.75-176.679687c2.847657-3.152344 7.714844-3.398438 10.867188-.546875 3.152343 2.851562 3.394531 7.71875.546875 10.867187l-159.75 176.679688c-1.519532 1.679687-3.613282 2.535156-5.710938 2.535156zm0 0"/><path d="m7.691406 393.074219c-1.839844 0-3.683594-.65625-5.15625-1.988281-3.152344-2.847657-3.398437-7.714844-.546875-10.867188l101.734375-112.515625c2.851563-3.152344 7.714844-3.398437 10.867188-.546875 3.152344 2.847656 3.398437 7.714844.546875 10.867188l-101.734375 112.515624c-1.519532 1.683594-3.613282 2.535157-5.710938 2.535157zm0 0"/></g></svg>