<svg height="512pt" viewBox="0 -2 512 512" width="512pt" xmlns="http://www.w3.org/2000/svg"><path d="m512 228.148438c0 47.527343-38.53125 86.058593-86.078125 86.058593h-311.476563c-63.199218 0-114.44140575-51.226562-114.44140575-114.445312 0-63.199219 51.24218775-114.445313 114.44140575-114.445313 5.671876 0 11.246094.4375 16.707032 1.226563 25.847656-51.324219 79-86.542969 140.40625-86.542969 74.296875 0 136.546875 51.585938 152.894531 120.890625 1.632813 6.914063 2.8125 14.007813 3.492187 21.230469v.015625c46.589844 1.066406 84.054688 39.160156 84.054688 86.011719zm0 0" fill="#d3ddea"/><path d="m326.164062 9.761719c-17.011718-6.316407-35.414062-9.75781275-54.605468-9.75781275-61.40625 0-114.542969 35.21874975-140.410156 86.53124975v.015625c-5.457032-.792969-11.03125-1.230469-16.703126-1.230469-63.214843.003907-114.445312 51.246094-114.445312 114.449219 0 63.214844 51.230469 114.445313 114.445312 114.445313h55.316407c-56.964844 0-103.121094-46.171875-103.121094-103.121094 0-50.535156 36.351563-92.585938 84.347656-101.40625 4.75-.890625 9.613281-1.4375 14.570313-1.632812 1.390625-.046876 2.796875-.082032 4.203125-.082032 18.511719 0 35.894531 4.878906 50.90625 13.441406-2.085938-14.527343-17.105469-28.136718-39.25-39.105468 12.160156-41.121094 53.542969-79.261719 144.746093-72.546875zm0 0" fill="#84abc1"/><path d="m103.1875 379.222656c0 13.382813-8.378906 24.804688-20.1875 29.296875-3.46875 1.328125-7.230469 2.050781-11.15625 2.050781-17.316406 0-31.359375-14.035156-31.359375-31.347656 0-17.316406 14.042969-31.347656 31.359375-31.347656 3.925781 0 7.6875.722656 11.15625 2.046875 11.808594 4.492187 20.1875 15.914063 20.1875 29.300781zm0 0" fill="#84abc1"/><path d="m103.1875 379.222656c0 13.382813-8.378906 24.804688-20.1875 29.296875-11.804688-4.492187-20.195312-15.914062-20.195312-29.296875 0-13.386718 8.390624-24.808594 20.195312-29.300781 11.808594 4.492187 20.1875 15.914063 20.1875 29.300781zm0 0" fill="#d3ddea"/><path d="m225.964844 379.222656c0 13.382813-8.378906 24.804688-20.1875 29.296875-3.46875 1.328125-7.230469 2.050781-11.160156 2.050781-17.3125 0-31.355469-14.035156-31.355469-31.347656 0-17.316406 14.042969-31.347656 31.355469-31.347656 3.929687 0 7.691406.722656 11.160156 2.046875 11.808594 4.492187 20.1875 15.914063 20.1875 29.300781zm0 0" fill="#84abc1"/><path d="m225.964844 379.222656c0 13.382813-8.378906 24.804688-20.1875 29.296875-11.808594-4.492187-20.199219-15.914062-20.199219-29.296875 0-13.386718 8.390625-24.808594 20.199219-29.300781 11.808594 4.492187 20.1875 15.914063 20.1875 29.300781zm0 0" fill="#d3ddea"/><path d="m348.738281 379.222656c0 13.382813-8.378906 24.804688-20.1875 29.296875-3.46875 1.328125-7.230469 2.050781-11.15625 2.050781-17.316406 0-31.359375-14.035156-31.359375-31.347656 0-17.316406 14.042969-31.347656 31.359375-31.347656 3.925781 0 7.6875.722656 11.15625 2.046875 11.808594 4.492187 20.1875 15.914063 20.1875 29.300781zm0 0" fill="#84abc1"/><path d="m348.738281 379.222656c0 13.382813-8.378906 24.804688-20.1875 29.296875-11.804687-4.492187-20.195312-15.914062-20.195312-29.296875 0-13.386718 8.390625-24.808594 20.195312-29.300781 11.808594 4.492187 20.1875 15.914063 20.1875 29.300781zm0 0" fill="#d3ddea"/><path d="m471.515625 379.222656c0 13.382813-8.378906 24.804688-20.1875 29.296875-3.46875 1.328125-7.230469 2.050781-11.160156 2.050781-17.3125 0-31.355469-14.035156-31.355469-31.347656 0-17.316406 14.042969-31.347656 31.355469-31.347656 3.929687 0 7.691406.722656 11.160156 2.046875 11.808594 4.492187 20.1875 15.914063 20.1875 29.300781zm0 0" fill="#84abc1"/><path d="m471.515625 379.222656c0 13.382813-8.378906 24.804688-20.1875 29.296875-11.808594-4.492187-20.199219-15.914062-20.199219-29.296875 0-13.386718 8.390625-24.808594 20.199219-29.300781 11.808594 4.492187 20.1875 15.914063 20.1875 29.300781zm0 0" fill="#d3ddea"/><path d="m164.578125 476.589844c0 13.386718-8.382813 24.808594-20.1875 29.300781-3.46875 1.328125-7.230469 2.046875-11.160156 2.046875-17.316407 0-31.359375-14.03125-31.359375-31.347656 0-17.3125 14.042968-31.34375 31.359375-31.34375 3.929687 0 7.691406.71875 11.160156 2.046875 11.804687 4.492187 20.1875 15.914062 20.1875 29.296875zm0 0" fill="#84abc1"/><path d="m164.578125 476.589844c0 13.386718-8.382813 24.808594-20.1875 29.300781-11.808594-4.492187-20.199219-15.914063-20.199219-29.300781 0-13.382813 8.390625-24.804688 20.199219-29.296875 11.804687 4.492187 20.1875 15.914062 20.1875 29.296875zm0 0" fill="#d3ddea"/><path d="m287.351562 476.589844c0 13.386718-8.378906 24.808594-20.1875 29.300781-3.46875 1.328125-7.230468 2.046875-11.160156 2.046875-17.3125 0-31.355468-14.03125-31.355468-31.347656 0-17.3125 14.042968-31.34375 31.355468-31.34375 3.929688 0 7.691406.71875 11.160156 2.046875 11.808594 4.492187 20.1875 15.914062 20.1875 29.296875zm0 0" fill="#84abc1"/><path d="m287.351562 476.589844c0 13.386718-8.378906 24.808594-20.1875 29.300781-11.808593-4.492187-20.195312-15.914063-20.195312-29.300781 0-13.382813 8.386719-24.804688 20.195312-29.296875 11.808594 4.492187 20.1875 15.914062 20.1875 29.296875zm0 0" fill="#d3ddea"/><path d="m410.128906 476.589844c0 13.386718-8.382812 24.808594-20.1875 29.300781-3.46875 1.328125-7.230468 2.046875-11.160156 2.046875-17.316406 0-31.359375-14.03125-31.359375-31.347656 0-17.3125 14.042969-31.34375 31.359375-31.34375 3.929688 0 7.691406.71875 11.160156 2.046875 11.804688 4.492187 20.1875 15.914062 20.1875 29.296875zm0 0" fill="#84abc1"/><path d="m410.128906 476.589844c0 13.386718-8.382812 24.808594-20.1875 29.300781-11.808594-4.492187-20.199218-15.914063-20.199218-29.300781 0-13.382813 8.390624-24.804688 20.199218-29.296875 11.804688 4.492187 20.1875 15.914062 20.1875 29.296875zm0 0" fill="#d3ddea"/></svg>