<svg height="512pt" viewBox="0 -53 512 512" width="512pt" xmlns="http://www.w3.org/2000/svg"><path d="m447.171875 221.007812c0 18.773438 34.023437 41.769532 29.390625 59.082032-.625 2.355468-1.878906 4.441406-3.613281 6.34375h-433.90625c-1.734375-1.902344-2.980469-3.988282-3.617188-6.34375-4.628906-17.3125 29.402344-40.308594 29.402344-59.082032 0-18.789062-34.03125-41.78125-29.402344-59.09375 4.789063-17.925781 45.894531-20.8125 54.972657-36.492187 9.199218-15.921875-8.746094-52.933594 4.171874-65.84375 12.910157-12.917969 49.921876 5.027344 65.84375-4.175781 15.683594-9.078125 18.570313-50.179688 36.492188-54.96875 17.3125-4.632813 40.316406 29.390625 59.09375 29.390625s41.769531-34.023438 59.09375-29.390625c17.914062 4.789062 20.800781 45.890625 36.492188 54.96875 15.910156 9.203125 52.921874-8.742188 65.84375 4.175781 12.90625 12.910156-5.039063 49.921875 4.164062 65.84375 9.085938 15.679687 50.179688 18.566406 54.96875 36.492187 4.632812 17.3125-29.390625 40.304688-29.390625 59.09375zm0 0" fill="#ffee8c"/><path d="m403.585938 220.996094c0 23.5-5.496094 45.714844-15.277344 65.4375h-264.636719c-9.773437-19.722656-15.265625-41.9375-15.265625-65.4375 0-81.503906 66.078125-147.574219 147.59375-147.574219 6.957031 0 13.8125.476563 20.511719 1.410156 71.804687 9.992188 127.074219 71.617188 127.074219 146.164063zm0 0" fill="#f28f44"/><path d="m403.585938 220.996094c0 23.5-5.496094 45.714844-15.277344 65.4375h-223.59375c-9.785156-19.722656-15.277344-41.9375-15.277344-65.4375 0-74.546875 55.269531-136.171875 127.074219-146.164063 71.804687 9.992188 127.074219 71.617188 127.074219 146.164063zm0 0" fill="#ffd073"/><path d="m214.886719 199.136719c-1.992188 0-3.988281-.761719-5.507813-2.28125-9.457031-9.460938-24.847656-9.460938-34.308594 0-3.042968 3.039062-7.976562 3.042969-11.015624 0-3.042969-3.042969-3.042969-7.972657 0-11.015625 15.53125-15.53125 40.804687-15.53125 56.339843 0 3.042969 3.042968 3.042969 7.972656 0 11.015625-1.523437 1.519531-3.515625 2.28125-5.507812 2.28125zm0 0" fill="#cc9236"/><path d="m342.433594 199.136719c-1.992188 0-3.988282-.761719-5.507813-2.28125-4.582031-4.582031-10.675781-7.105469-17.15625-7.105469s-12.570312 2.523438-17.152343 7.105469c-3.042969 3.039062-7.976563 3.042969-11.015626 0-3.042968-3.042969-3.042968-7.972657 0-11.015625 7.523438-7.523438 17.527344-11.667969 28.171876-11.667969 10.640624 0 20.644531 4.144531 28.167968 11.667969 3.042969 3.042968 3.042969 7.972656 0 11.015625-1.523437 1.519531-3.515625 2.28125-5.507812 2.28125zm0 0" fill="#cc9236"/><path d="m255.996094 258.730469c-14.34375 0-28.691406-5.460938-39.613282-16.378907-3.039062-3.042968-3.039062-7.972656 0-11.015624 3.042969-3.042969 7.976563-3.042969 11.015626 0 15.769531 15.765624 41.425781 15.765624 57.195312 0 3.039062-3.042969 7.972656-3.042969 11.011719 0 3.042969 3.042968 3.042969 7.972656 0 11.015624-10.917969 10.917969-25.261719 16.378907-39.609375 16.378907zm0 0" fill="#cc9236"/><g fill="#84abc1"><path d="m504.210938 294.222656h-496.421876c-4.300781 0-7.789062-3.488281-7.789062-7.789062 0-4.300782 3.488281-7.789063 7.789062-7.789063h496.421876c4.300781 0 7.789062 3.488281 7.789062 7.789063 0 4.300781-3.488281 7.789062-7.789062 7.789062zm0 0"/><path d="m477.320312 331.601562h-98.136718c-4.300782 0-7.789063-3.484374-7.789063-7.789062 0-4.300781 3.488281-7.789062 7.789063-7.789062h98.136718c4.300782 0 7.789063 3.488281 7.789063 7.789062 0 4.304688-3.488281 7.789062-7.789063 7.789062zm0 0"/><path d="m348.027344 331.601562h-313.347656c-4.300782 0-7.789063-3.484374-7.789063-7.789062 0-4.300781 3.488281-7.789062 7.789063-7.789062h313.347656c4.300781 0 7.789062 3.488281 7.789062 7.789062 0 4.304688-3.488281 7.789062-7.789062 7.789062zm0 0"/><path d="m449.28125 368.988281h-272.601562c-4.300782 0-7.789063-3.488281-7.789063-7.789062s3.488281-7.789063 7.789063-7.789063h272.601562c4.300781 0 7.789062 3.488282 7.789062 7.789063s-3.488281 7.789062-7.789062 7.789062zm0 0"/><path d="m145.523438 368.988281h-82.804688c-4.300781 0-7.789062-3.488281-7.789062-7.789062s3.488281-7.789063 7.789062-7.789063h82.804688c4.300781 0 7.789062 3.488282 7.789062 7.789063s-3.484375 7.789062-7.789062 7.789062zm0 0"/><path d="m427.472656 406.371094h-342.945312c-4.300782 0-7.789063-3.484375-7.789063-7.789063 0-4.300781 3.488281-7.789062 7.789063-7.789062h342.945312c4.300782 0 7.789063 3.488281 7.789063 7.789062 0 4.304688-3.488281 7.789063-7.789063 7.789063zm0 0"/></g></svg>